<svg xmlns="http://www.w3.org/2000/svg" width="256" height="256" viewBox="0 0 100 100"><path fill="#000000" d="M48.84 18.27L48.84 18.27L42.25 18.27Q42.13 25.30 42.08 32.62Q42.02 39.94 42.02 47.30L42.02 47.30L42.02 52.59L49.28 52.59Q59.30 52.59 63.58 47.69Q67.88 42.80 67.88 35.09L67.88 35.09Q67.88 27.07 63.31 22.67Q58.75 18.27 48.84 18.27ZM31.36 18.92L21.23 17.72L21.23 13.20L50.83 13.20Q64.80 13.20 71.78 19.31Q78.77 25.41 78.77 35.09L78.77 35.09Q78.77 41.26 75.69 46.43Q72.61 51.59 65.84 54.68Q59.08 57.76 47.75 57.76L47.75 57.76L42.02 57.76Q42.02 63.70 42.08 69.42Q42.13 75.14 42.25 81.08L42.25 81.08L52.47 82.28L52.47 86.80L21.23 86.80L21.23 82.28L31.36 81.08Q31.57 74.14 31.57 67.00Q31.57 59.84 31.57 52.70L31.57 52.70L31.57 47.30Q31.57 40.16 31.57 33.06Q31.57 25.97 31.36 18.92L31.36 18.92Z"></path></svg>